<?xml version="1.0" encoding="UTF-8" standalone="no"?>
<!DOCTYPE svg PUBLIC "-//W3C//DTD SVG 1.1//EN" "http://www.w3.org/Graphics/SVG/1.1/DTD/svg11.dtd">
<svg width="100%" height="100%" viewBox="0 0 3024 820" version="1.1" xmlns="http://www.w3.org/2000/svg" xmlns:xlink="http://www.w3.org/1999/xlink" xml:space="preserve" xmlns:serif="http://www.serif.com/" style="fill-rule:evenodd;clip-rule:evenodd;stroke-linejoin:round;stroke-miterlimit:2;">
    <g transform="matrix(1,0,0,1,-30414.3,-8881.54)">
        <g id="Artboard1" transform="matrix(2.95312,0,0,1.06759,30414.3,8881.54)">
            <rect x="0" y="0" width="1024" height="768" style="fill:none;"/>
            <g transform="matrix(6.30264,0,0,17.434,-757.952,-1704.88)">
                <path d="M278.89,100.705L278.89,115.286L276.461,115.286L276.461,100.705L278.89,100.705ZM122.589,103.158L122.617,100.688L146.523,100.688L146.523,103.143L135.783,103.143L135.783,115.286L133.358,115.286L133.358,103.158L122.589,103.158ZM162.069,100.699L163.863,100.699L177.476,115.28L174.172,115.28L169.816,110.664L156.124,110.664L151.729,115.28L148.464,115.28L162.069,100.699ZM167.525,108.185L162.967,103.314L158.41,108.185L167.525,108.185ZM223.739,100.699L225.524,100.699L239.128,115.28L235.849,115.28L231.485,110.664L217.781,110.664L213.409,115.28L210.126,115.28L223.739,100.699ZM229.201,108.185L224.638,103.314L220.085,108.185L229.201,108.185ZM202.238,106.782L202.238,100.705L204.684,100.705L204.684,115.286L202.246,115.286L202.246,109.237L185.346,109.237L185.346,115.286L182.919,115.286L182.919,100.705L185.373,100.705L185.373,106.782L202.238,106.782ZM261.228,109.217C262.98,110.861 267.715,115.279 267.715,115.279L264.18,115.279L257.667,109.217L247.017,109.217L247.017,115.279L244.58,115.279L244.58,100.688L260.798,100.688C261.416,100.688 263.536,100.796 264.885,102.206C264.887,102.206 266.373,103.499 265.928,105.727C265.91,106.039 265.526,107.506 264.043,108.367C263.89,108.479 262.975,109.077 261.228,109.217ZM247.039,106.771L260.798,106.771C261.177,106.771 261.96,106.728 262.736,106.324C263.188,106.019 263.449,105.639 263.511,105.192C263.528,105.004 263.551,104.364 263.103,103.916L263.053,103.872C262.796,103.653 262.066,103.142 260.837,103.142L247.039,103.142L247.039,106.771ZM129.096,137.644C129.667,137.644 130.138,137.598 130.508,137.507C130.879,137.416 131.247,137.284 131.613,137.113L131.972,138.38C131.573,138.574 131.136,138.717 130.663,138.808C130.189,138.899 129.61,138.945 128.925,138.945C128.217,138.945 127.55,138.825 126.922,138.585C126.294,138.346 125.749,137.992 125.287,137.524C124.825,137.056 124.459,136.477 124.191,135.786C123.923,135.096 123.789,134.3 123.789,133.398C123.789,132.519 123.92,131.735 124.183,131.044C124.445,130.354 124.808,129.771 125.27,129.298C125.732,128.824 126.283,128.465 126.922,128.219C127.561,127.974 128.257,127.851 129.01,127.851C129.718,127.851 130.3,127.908 130.757,128.022C131.213,128.137 131.636,128.291 132.024,128.485L131.647,129.717C131.43,129.626 131.227,129.543 131.039,129.469C130.851,129.395 130.663,129.335 130.474,129.289C130.286,129.244 130.092,129.209 129.892,129.187C129.692,129.164 129.467,129.152 129.216,129.152C128.714,129.152 128.237,129.229 127.786,129.383C127.336,129.538 126.942,129.786 126.605,130.128C126.268,130.471 126,130.913 125.8,131.455C125.601,131.997 125.501,132.65 125.501,133.415C125.501,134.191 125.598,134.848 125.792,135.384C125.986,135.92 126.246,136.354 126.571,136.685C126.896,137.016 127.276,137.259 127.709,137.413C128.143,137.567 128.605,137.644 129.096,137.644ZM153.543,128.005L154.947,128.005L159.244,138.791L157.601,138.791L156.419,135.795L151.985,135.795L150.821,138.791L149.195,138.791L153.543,128.005ZM152.413,134.545L155.957,134.545L155.238,132.679C155.044,132.188 154.867,131.715 154.707,131.258C154.548,130.802 154.388,130.334 154.228,129.854L154.194,129.854C154.034,130.334 153.869,130.796 153.697,131.241C153.526,131.686 153.344,132.165 153.15,132.679L152.413,134.545ZM177.203,128.005L180.593,128.005C181.152,128.005 181.66,128.077 182.117,128.219C182.573,128.362 182.967,128.573 183.298,128.853C183.629,129.132 183.886,129.475 184.068,129.88C184.251,130.285 184.342,130.75 184.342,131.275C184.342,131.846 184.245,132.339 184.051,132.756C183.857,133.173 183.583,133.518 183.229,133.792C182.875,134.066 182.459,134.271 181.98,134.408C181.5,134.545 180.969,134.614 180.387,134.614L178.778,134.614L178.778,138.791L177.203,138.791L177.203,128.005ZM178.778,133.33L179.754,133.33C180.176,133.33 180.57,133.301 180.935,133.244C181.3,133.187 181.611,133.084 181.868,132.936C182.125,132.787 182.328,132.579 182.476,132.311C182.624,132.043 182.699,131.703 182.699,131.292C182.699,130.916 182.627,130.599 182.485,130.342C182.342,130.085 182.156,129.877 181.928,129.717C181.7,129.557 181.437,129.443 181.141,129.375C180.844,129.306 180.541,129.272 180.233,129.272L178.778,129.272L178.778,133.33ZM204.304,128.005L204.304,138.791L202.729,138.791L202.729,128.005L204.304,128.005ZM230.652,128.005L230.652,129.341L227.279,129.341L227.279,138.791L225.704,138.791L225.704,129.341L222.4,129.341L222.4,128.005L230.652,128.005ZM250.562,128.005L251.966,128.005L256.263,138.791L254.619,138.791L253.438,135.795L249.004,135.795L247.84,138.791L246.214,138.791L250.562,128.005ZM249.432,134.545L252.976,134.545L252.257,132.679C252.063,132.188 251.886,131.715 251.726,131.258C251.566,130.802 251.407,130.334 251.247,129.854L251.213,129.854C251.053,130.334 250.887,130.796 250.716,131.241C250.545,131.686 250.362,132.165 250.168,132.679L249.432,134.545ZM274.222,128.005L275.797,128.005L275.797,137.455L280.402,137.455L280.402,138.791L274.222,138.791L274.222,128.005Z" style="fill:white;"/>
            </g>
        </g>
    </g>
</svg>
