<?xml version="1.0" encoding="UTF-8" standalone="no"?>
<!DOCTYPE svg PUBLIC "-//W3C//DTD SVG 1.1//EN" "http://www.w3.org/Graphics/SVG/1.1/DTD/svg11.dtd">
<svg width="100%" height="100%" viewBox="0 0 918 172" version="1.1" xmlns="http://www.w3.org/2000/svg" xmlns:xlink="http://www.w3.org/1999/xlink" xml:space="preserve" xmlns:serif="http://www.serif.com/" style="fill-rule:evenodd;clip-rule:evenodd;stroke-linejoin:round;stroke-miterlimit:2;">
    <g transform="matrix(1,0,0,1,-645.581,-792.487)">
        <g transform="matrix(1,0,0,1,0,-594.353)">
            <path d="M806.434,1515.15C810.649,1515.47 815.048,1516.33 818.258,1519.04C824.664,1524.46 822.991,1534.03 815.756,1537.76C812.77,1539.3 809.592,1539.97 806.335,1540.19L825.983,1558.51L815.353,1558.51L795.8,1540.28L759.988,1540.28L759.988,1558.51L752.777,1558.51L752.777,1515.2L752.957,1515.2L752.957,1515.18L802.753,1515.18L802.754,1515.15L806.434,1515.15ZM759.988,1533.11L801.907,1533.11C804.371,1533.01 809.443,1532.73 810.762,1532.21C810.914,1532.15 811.039,1532.1 811.14,1532.08C811.601,1531.9 812.058,1531.7 812.507,1531.47C815.234,1530.06 816.1,1526.49 813.686,1524.45C810.954,1522.14 806.909,1522.14 803.417,1522.08L803.417,1522.13L759.988,1522.13L759.988,1533.11ZM1187.4,1550.62L1231.22,1550.62L1231.22,1558.52L1180.24,1558.52L1180.24,1558.51L1180.19,1558.51L1180.19,1515.2L1187.4,1515.2L1187.4,1550.62ZM902.76,1540.5L902.566,1540.5L902.566,1532.6L902.76,1532.6L902.76,1515.2L909.971,1515.2L909.971,1515.43L964.929,1515.43L964.929,1523.32L909.971,1523.32L909.971,1532.6L964.554,1532.6L964.554,1540.5L909.971,1540.5L909.971,1550.62L964.929,1550.62L964.929,1558.52L902.941,1558.52L902.941,1558.51L902.76,1558.51L902.76,1540.5ZM1336.29,1522.62L1336.29,1558.51L1329.04,1558.51L1329.04,1522.62L1289.83,1522.62L1289.83,1515.26L1374.9,1515.26L1374.9,1522.62L1336.29,1522.62ZM1469.63,1542.83L1432.92,1515.33L1445.02,1515.33L1473.23,1536.47L1473.23,1538.24L1473.28,1538.24L1473.28,1536.47L1501.5,1515.33L1513.59,1515.33L1476.88,1542.84L1476.88,1558.51L1469.63,1558.51L1469.63,1542.83ZM1563.04,1386.94L1563.04,1472.53L1548.79,1472.53L1548.79,1386.94L1563.04,1386.94ZM645.581,1401.34L645.744,1386.84L786.07,1386.84L786.07,1401.25L723.027,1401.25L723.027,1472.53L708.793,1472.53L708.793,1401.34L645.581,1401.34ZM877.322,1386.9L887.852,1386.9L967.76,1472.49L948.367,1472.49L922.796,1445.4L842.424,1445.4L816.626,1472.49L797.466,1472.49L877.322,1386.9ZM909.348,1430.85L882.596,1402.25L855.843,1430.85L909.348,1430.85ZM1239.32,1386.9L1249.8,1386.9L1329.65,1472.49L1310.4,1472.49L1284.79,1445.4L1204.35,1445.4L1178.68,1472.49L1159.41,1472.49L1239.32,1386.9ZM1271.38,1430.85L1244.59,1402.25L1217.87,1430.85L1271.38,1430.85ZM1113.11,1422.61L1113.11,1386.94L1127.47,1386.94L1127.47,1472.53L1113.16,1472.53L1113.16,1437.02L1013.96,1437.02L1013.96,1472.53L999.705,1472.53L999.705,1386.94L1014.12,1386.94L1014.12,1422.61L1113.11,1422.61ZM1459.38,1436.91C1469.66,1446.56 1497.45,1472.49 1497.45,1472.49L1476.7,1472.49L1438.47,1436.91L1375.95,1436.91L1375.95,1472.49L1361.65,1472.49L1361.65,1386.84L1456.85,1386.84C1460.48,1386.84 1472.92,1387.48 1480.84,1395.76C1480.85,1395.76 1489.57,1403.35 1486.96,1416.42C1486.86,1418.26 1484.6,1426.87 1475.9,1431.92C1475,1432.58 1469.62,1436.09 1459.38,1436.91ZM1376.09,1422.55L1456.85,1422.55C1459.07,1422.55 1463.67,1422.3 1468.23,1419.93C1470.88,1418.13 1472.41,1415.9 1472.77,1413.29C1472.88,1412.18 1473.01,1408.42 1470.38,1405.79L1470.08,1405.54C1468.58,1404.25 1464.29,1401.25 1457.08,1401.25L1376.09,1401.25L1376.09,1422.55ZM1067.02,1515.39L1072.32,1515.39L1112.53,1558.46L1102.77,1558.46L1089.9,1544.83L1049.46,1544.83L1036.48,1558.46L1026.84,1558.46L1067.02,1515.39ZM1083.14,1537.5L1069.67,1523.12L1056.21,1537.5L1083.14,1537.5Z" style="fill:white;"/>
        </g>
    </g>
</svg>
