<?xml version="1.0" encoding="UTF-8" standalone="no"?>
<!DOCTYPE svg PUBLIC "-//W3C//DTD SVG 1.1//EN" "http://www.w3.org/Graphics/SVG/1.1/DTD/svg11.dtd">
<svg width="100%" height="100%" viewBox="0 0 321 61" version="1.1" xmlns="http://www.w3.org/2000/svg" xmlns:xlink="http://www.w3.org/1999/xlink" xml:space="preserve" xmlns:serif="http://www.serif.com/" style="fill-rule:evenodd;clip-rule:evenodd;stroke-linejoin:round;stroke-miterlimit:2;">
    <g transform="matrix(1,0,0,1,-145.3,-365.79)">
        <g transform="matrix(1,0,0,1,0,-30.411)">
            <g id="Layer-1" serif:id="Layer 1">
                <path d="M291.417,441.081C292.893,441.191 294.434,441.491 295.558,442.441C297.798,444.335 297.213,447.684 294.682,448.989C293.274,449.716 291.745,449.885 290.189,449.868L270.522,449.868L270.522,456.325L267.986,456.325L267.986,441.099L270.051,441.099L270.051,441.093L291.417,441.081ZM270.522,447.362L289.864,447.362C290.734,447.325 292.479,447.229 292.936,447.047C292.988,447.026 293.031,447.011 293.066,447.002C293.228,446.941 293.388,446.87 293.546,446.788C294.5,446.296 294.803,445.047 293.959,444.333C293.195,443.688 292.139,443.559 291.122,443.522L270.522,443.522L270.522,447.362ZM444.027,453.635L459.352,453.635L459.352,456.397L441.519,456.397L441.519,456.289L441.497,456.289L441.497,441.099L444.027,441.099L444.027,453.635ZM361.291,443.497L361.291,456.325L358.755,456.325L358.755,443.497L345.041,443.497L345.041,440.921L374.799,440.921L374.799,443.497L361.291,443.497ZM173.748,448.591L173.746,448.591C173.746,445.755 174.753,444.014 175.904,442.923C177.696,441.226 179.942,441.104 179.942,441.104L179.98,441.102L183.008,441.102L183.008,441.099L198.103,441.099L198.103,443.605L183.44,443.605L183.44,443.61C183.44,443.61 180.069,443.61 180.064,443.61C179.859,443.631 178.632,443.794 177.629,444.744C176.853,445.479 176.254,446.681 176.254,448.591L176.247,448.591L176.247,448.626L176.254,448.626C176.254,450.536 176.853,451.738 177.629,452.473C178.637,453.428 179.871,453.588 180.069,453.607L183.44,453.607L183.44,453.612L198.103,453.612L198.103,456.118L183.008,456.118L183.008,456.115L179.98,456.115L179.942,456.113C179.942,456.113 177.696,455.991 175.904,454.294C174.787,453.236 173.806,451.565 173.748,448.877C173.747,448.794 173.746,448.711 173.746,448.626L173.748,448.626L173.748,448.591ZM466.2,396.238L466.2,426.173L461.214,426.173L461.214,396.238L466.2,396.238ZM145.3,401.273L145.357,396.202L194.439,396.202L194.439,401.242L172.388,401.242L172.388,426.173L167.41,426.173L167.41,401.273L145.3,401.273ZM226.356,396.225L230.039,396.225L257.988,426.161L251.206,426.161L242.262,416.684L214.15,416.684L205.127,426.161L198.425,426.161L226.356,396.225ZM237.558,411.594L228.201,401.593L218.844,411.594L237.558,411.594ZM352.971,396.225L356.636,396.225L384.566,426.161L377.835,426.161L368.875,416.684L340.739,416.684L331.762,426.161L325.022,426.161L352.971,396.225ZM364.185,411.594L354.816,401.593L345.469,411.594L364.185,411.594ZM308.828,408.713L308.828,396.236L313.85,396.236L313.85,426.172L308.844,426.172L308.844,413.753L274.148,413.753L274.148,426.172L269.162,426.172L269.162,396.236L274.202,396.236L274.202,408.713L308.828,408.713ZM429.94,413.713C433.537,417.09 443.257,426.16 443.257,426.16L435.999,426.16L422.628,413.713L400.762,413.713L400.762,426.16L395.759,426.16L395.759,396.201L429.056,396.201C430.325,396.201 434.678,396.426 437.447,399.32C437.451,399.32 440.502,401.974 439.588,406.548C439.552,407.189 438.764,410.202 435.719,411.969C435.404,412.199 433.525,413.427 429.94,413.713ZM400.808,408.692L429.056,408.692C429.834,408.692 431.442,408.603 433.036,407.775C433.964,407.147 434.499,406.367 434.626,405.451C434.662,405.064 434.708,403.75 433.79,402.829L433.685,402.74C433.158,402.29 431.66,401.242 429.136,401.242L400.808,401.242L400.808,408.692ZM231.818,441.165L233.672,441.165L247.736,456.229L244.323,456.229L239.821,451.46L225.676,451.46L221.135,456.229L217.762,456.229L231.818,441.165ZM237.455,448.899L232.746,443.867L228.038,448.899L237.455,448.899ZM407.044,441.165L408.898,441.165L422.962,456.229L419.549,456.229L415.048,451.46L400.902,451.46L396.361,456.229L392.989,456.229L407.044,441.165ZM412.681,448.899L407.972,443.867L403.264,448.899L412.681,448.899ZM319.566,441.099L322.102,441.099L322.102,456.325L319.566,456.325L319.566,441.099Z" style="fill:white;"/>
            </g>
        </g>
    </g>
</svg>
