<?xml version="1.0" encoding="UTF-8" standalone="no"?>
<!DOCTYPE svg PUBLIC "-//W3C//DTD SVG 1.1//EN" "http://www.w3.org/Graphics/SVG/1.1/DTD/svg11.dtd">
<svg width="100%" height="100%" viewBox="0 0 918 170" version="1.1" xmlns="http://www.w3.org/2000/svg" xmlns:xlink="http://www.w3.org/1999/xlink" xml:space="preserve" xmlns:serif="http://www.serif.com/" style="fill-rule:evenodd;clip-rule:evenodd;stroke-linejoin:round;stroke-miterlimit:2;">
    <g transform="matrix(1,0,0,1,-650.012,-1331.41)">
        <g transform="matrix(1,0,0,1,0,483.493)">
            <path d="M1312.07,976.179C1316.09,976.478 1320.28,977.297 1323.35,979.885C1329.45,985.047 1327.86,994.17 1320.96,997.73C1318.12,999.199 1315.09,999.831 1311.98,1000.04L1330.71,1017.5L1320.58,1017.5L1301.94,1000.12L1267.81,1000.12L1267.81,1017.5L1260.93,1017.5L1260.93,976.228L1261.11,976.228L1261.11,976.211L1308.57,976.211L1308.57,976.179L1312.07,976.179ZM1316.56,992.313C1317,992.146 1317.44,991.953 1317.87,991.732C1320.46,990.39 1321.29,986.986 1318.99,985.04C1316.38,982.84 1312.53,982.843 1309.2,982.783L1309.2,982.831L1267.81,982.831L1267.81,993.297L1307.79,993.297C1310.14,993.197 1314.95,992.936 1316.2,992.435C1316.35,992.377 1316.47,992.338 1316.56,992.313ZM1490.35,1000.23C1486.5,999.889 1482.55,999.022 1479.62,996.615C1473.24,991.37 1474.87,982.094 1482.07,978.477C1485.82,976.598 1489.87,976.108 1494,976.116L1494,976.113L1535.69,976.113L1535.69,983.573L1494.44,983.573C1494.1,983.588 1493.74,983.57 1493.41,983.584C1492.89,983.606 1492.37,983.636 1491.86,983.674C1489.35,983.855 1486.44,984.147 1484.45,985.873C1483.98,986.283 1483.58,986.795 1483.4,987.401C1483.4,987.401 1482.8,988.995 1483.91,990.435C1484.04,990.585 1484.19,990.729 1484.35,990.864C1484.95,991.356 1485.62,991.731 1486.33,992.018C1486.73,992.16 1487.19,992.285 1487.71,992.388C1487.71,992.388 1490.14,992.857 1493.09,992.976C1493.37,992.981 1493.65,992.985 1493.92,992.989L1495.36,992.989C1495.39,992.989 1495.43,992.989 1495.46,992.989L1518.18,992.989L1518.18,993.02L1522.46,993.02L1524.22,993.125L1524.22,993.02L1524.58,993.02L1524.58,992.989L1524.63,992.989L1524.63,993.044C1528.2,993.456 1531.77,994.398 1534.47,996.684C1540.81,1002.04 1539.16,1011.5 1532.02,1015.19C1529.81,1016.33 1527.5,1016.97 1525.13,1017.31L1521.91,1017.5L1518.82,1017.5L1518.82,1017.51L1477.67,1017.51L1477.67,1009.99L1522.87,1009.99C1524.83,1009.82 1526.75,1009.41 1528.55,1008.48C1530.9,1007.27 1531.68,1004.2 1529.6,1002.45C1527.66,1000.81 1525.01,1000.44 1522.42,1000.34L1501.89,1000.34L1501.89,1000.31L1495.84,1000.31L1495.84,1000.31L1491.56,1000.31L1490.35,1000.23ZM777.312,987.255L787.691,976.353L796.903,976.353L758.509,1017.5L753.446,1017.5L715.027,976.353L724.351,976.353L736.646,989.381L736.659,989.381L755.997,1010.05L777.325,987.255L777.312,987.255ZM1155.82,998.631L1155.8,998.631L1155.8,976.353L1162.7,976.353L1162.7,998.631L1162.68,998.631L1162.68,1001.51L1162.68,1001.53C1162.63,1005.25 1164.7,1007.27 1167.35,1008.44C1170.85,1009.97 1175.18,1010.27 1178.44,1010.5C1180.25,1010.62 1182.26,1010.68 1183.93,1010.69L1185.61,1010.69C1187.29,1010.68 1189.3,1010.62 1191.1,1010.5C1194.36,1010.27 1198.7,1009.97 1202.19,1008.44C1204.84,1007.27 1206.91,1005.25 1206.86,1001.51L1206.86,998.631L1206.84,998.631L1206.84,976.353L1213.75,976.353L1213.75,998.631L1213.72,998.631C1213.72,1000.11 1213.72,1001.47 1213.72,1001.47C1213.8,1008.56 1210,1012.5 1204.95,1014.72C1200.73,1016.57 1195.52,1017.07 1191.57,1017.34C1189.74,1017.47 1187.71,1017.54 1185.98,1017.55L1185.98,1017.56L1183.56,1017.56L1183.56,1017.55C1181.82,1017.54 1179.8,1017.47 1177.97,1017.34C1174.03,1017.07 1168.81,1016.57 1164.6,1014.72C1159.54,1012.5 1155.74,1008.56 1155.82,1001.47L1155.82,998.631ZM1076.92,983.3L1076.92,1017.5L1070.01,1017.5L1070.01,983.3L1032.64,983.3L1032.64,976.279L1113.73,976.279L1113.73,983.3L1076.92,983.3ZM830.79,976.353L830.79,976.261L889.874,976.261L889.874,983.788L837.49,983.788L837.49,992.811L889.885,992.811L889.885,1000.34L837.49,1000.34L837.49,1009.99L889.874,1009.99L889.874,1017.51L830.79,1017.51L830.79,1017.5L830.616,1017.5L830.616,976.353L830.79,976.353ZM1371.21,976.228L1371.21,976.217L1429.92,976.217L1429.92,983.744L1377.65,983.744L1377.65,992.811L1429.9,992.811L1429.9,1000.34L1377.65,1000.34L1377.65,1009.99L1429.92,1009.99L1429.92,1017.51L1371.21,1017.51L1371.21,1017.5L1370.82,1017.5L1370.82,976.228L1371.21,976.228ZM1567.47,848.021L1567.47,933.606L1553.22,933.606L1553.22,848.021L1567.47,848.021ZM650.012,862.417L650.175,847.92L790.501,847.92L790.501,862.328L727.458,862.328L727.458,933.606L713.224,933.606L713.224,862.417L650.012,862.417ZM881.753,847.982L892.283,847.982L972.191,933.571L952.798,933.571L927.227,906.474L846.855,906.474L821.057,933.571L801.897,933.571L881.753,847.982ZM913.779,891.923L887.027,863.331L860.274,891.923L913.779,891.923ZM1243.75,847.982L1254.23,847.982L1334.08,933.571L1314.84,933.571L1289.22,906.474L1208.78,906.474L1183.11,933.571L1163.84,933.571L1243.75,847.982ZM1275.81,891.923L1249.02,863.331L1222.3,891.923L1275.81,891.923ZM1117.54,883.689L1117.54,848.017L1131.9,848.017L1131.9,933.605L1117.59,933.605L1117.59,898.1L1018.39,898.1L1018.39,933.605L1004.14,933.605L1004.14,848.017L1018.55,848.017L1018.55,883.689L1117.54,883.689ZM1463.81,897.985C1474.09,907.639 1501.88,933.571 1501.88,933.571L1481.13,933.571L1442.9,897.985L1380.38,897.985L1380.38,933.571L1366.08,933.571L1366.08,847.917L1461.28,847.917C1464.91,847.917 1477.35,848.559 1485.27,856.834C1485.28,856.834 1494,864.423 1491.39,877.498C1491.29,879.333 1489.03,887.945 1480.33,892.998C1479.43,893.655 1474.06,897.166 1463.81,897.985ZM1380.52,883.629L1461.28,883.629C1463.5,883.629 1468.1,883.374 1472.66,881.007C1475.31,879.212 1476.84,876.982 1477.2,874.363C1477.31,873.256 1477.44,869.499 1474.81,866.868L1474.51,866.613C1473.01,865.326 1468.73,862.328 1461.51,862.328L1380.52,862.328L1380.52,883.629ZM941.442,976.352L941.62,976.352L941.652,976.352L941.652,976.375L987.611,1009.23L987.611,976.352L994.521,976.352L994.521,1017.41L994.519,1017.41L994.519,1017.5L987.31,1017.5L941.652,984.869L941.652,1017.41L934.742,1017.41L934.742,976.352L941.442,976.352Z" style="fill:white;"/>
        </g>
    </g>
</svg>
