<?xml version="1.0" encoding="UTF-8" standalone="no"?>
<!DOCTYPE svg PUBLIC "-//W3C//DTD SVG 1.1//EN" "http://www.w3.org/Graphics/SVG/1.1/DTD/svg11.dtd">
<svg width="100%" height="100%" viewBox="0 0 3024 377" version="1.1" xmlns="http://www.w3.org/2000/svg" xmlns:xlink="http://www.w3.org/1999/xlink" xml:space="preserve" xmlns:serif="http://www.serif.com/" style="fill-rule:evenodd;clip-rule:evenodd;stroke-linejoin:round;stroke-miterlimit:2;">
    <g transform="matrix(1,0,0,1,-8185.9,-5770.32)">
        <g id="Artboard1" transform="matrix(2.95312,0,0,0.490426,8185.9,5770.32)">
            <rect x="0" y="0" width="1024" height="768" style="fill:none;"/>
            <g transform="matrix(6.30264,0,0,37.9516,-757.952,-3711.64)">
                <g>
                    <g transform="matrix(1,0,0,1,0,0.009)">
                        <rect x="276.461" y="100.705" width="2.429" height="14.581" style="fill:white;"/>
                    </g>
                    <g transform="matrix(1,0,0,1,122.589,112.825)">
                        <path d="M0,-9.658L10.769,-9.658L10.769,2.47L13.194,2.47L13.194,-9.673L23.934,-9.673L23.934,-12.128L0.028,-12.128L0,-9.658Z" style="fill:white;fill-rule:nonzero;"/>
                    </g>
                    <g transform="matrix(1,0,0,1,167.525,107.803)">
                        <path d="M0,0.391L-9.115,0.391L-4.558,-4.48L0,0.391ZM-5.456,-7.095L-19.061,7.486L-15.796,7.486L-11.401,2.87L2.291,2.87L6.647,7.486L9.951,7.486L-3.662,-7.095L-5.456,-7.095Z" style="fill:white;fill-rule:nonzero;"/>
                    </g>
                    <g transform="matrix(1,0,0,1,229.201,107.803)">
                        <path d="M0,0.391L-9.116,0.391L-4.563,-4.48L0,0.391ZM-5.462,-7.095L-19.075,7.486L-15.792,7.486L-11.42,2.87L2.284,2.87L6.648,7.486L9.927,7.486L-3.677,-7.095L-5.462,-7.095Z" style="fill:white;fill-rule:nonzero;"/>
                    </g>
                    <g transform="matrix(1,0,0,1,202.238,109.218)">
                        <path d="M0,-2.427L-16.865,-2.427L-16.865,-8.504L-19.32,-8.504L-19.32,6.077L-16.892,6.077L-16.892,0.028L0.008,0.028L0.008,6.077L2.446,6.077L2.446,-8.504L0,-8.504L0,-2.427Z" style="fill:white;fill-rule:nonzero;"/>
                    </g>
                    <g transform="matrix(1,0,0,1,247.039,109.204)">
                        <path d="M0,-2.424L0,-6.053L13.798,-6.053C15.027,-6.053 15.757,-5.542 16.014,-5.323L16.064,-5.279C16.512,-4.831 16.489,-4.191 16.472,-4.003C16.41,-3.556 16.149,-3.176 15.697,-2.871C14.921,-2.467 14.138,-2.424 13.759,-2.424L0,-2.424ZM14.189,0.022C15.936,-0.118 16.851,-0.716 17.004,-0.828C18.487,-1.689 18.871,-3.156 18.889,-3.468C19.334,-5.696 17.848,-6.989 17.846,-6.989C16.497,-8.399 14.377,-8.508 13.759,-8.508L-2.459,-8.508L-2.459,6.084L-0.022,6.084L-0.022,0.022L10.628,0.022L17.141,6.084L20.676,6.084C20.676,6.084 15.941,1.666 14.189,0.022" style="fill:white;fill-rule:nonzero;"/>
                    </g>
                </g>
            </g>
        </g>
    </g>
</svg>
