<?xml version="1.0" encoding="UTF-8" standalone="no"?>
<!DOCTYPE svg PUBLIC "-//W3C//DTD SVG 1.1//EN" "http://www.w3.org/Graphics/SVG/1.1/DTD/svg11.dtd">
<svg width="100%" height="100%" viewBox="0 0 3024 755" version="1.1" xmlns="http://www.w3.org/2000/svg" xmlns:xlink="http://www.w3.org/1999/xlink" xml:space="preserve" xmlns:serif="http://www.serif.com/" style="fill-rule:evenodd;clip-rule:evenodd;stroke-linejoin:round;stroke-miterlimit:2;">
    <g transform="matrix(1,0,0,1,-3740.61,-5521.04)">
        <g id="Artboard1" transform="matrix(2.95312,0,0,0.982855,3740.61,5521.04)">
            <rect x="0" y="0" width="1024" height="768" style="fill:none;"/>
            <g transform="matrix(6.30264,0,0,18.9372,-757.952,-1852.04)">
                <g>
                    <g transform="matrix(1,0,0,1,0,0.009)">
                        <rect x="276.461" y="100.705" width="2.429" height="14.581" style="fill:white;"/>
                    </g>
                    <g transform="matrix(1,0,0,1,122.589,112.825)">
                        <path d="M0,-9.658L10.769,-9.658L10.769,2.47L13.194,2.47L13.194,-9.673L23.934,-9.673L23.934,-12.128L0.028,-12.128L0,-9.658Z" style="fill:white;fill-rule:nonzero;"/>
                    </g>
                    <g transform="matrix(1,0,0,1,167.525,107.803)">
                        <path d="M0,0.391L-9.115,0.391L-4.558,-4.48L0,0.391ZM-5.456,-7.095L-19.061,7.486L-15.796,7.486L-11.401,2.87L2.291,2.87L6.647,7.486L9.951,7.486L-3.662,-7.095L-5.456,-7.095Z" style="fill:white;fill-rule:nonzero;"/>
                    </g>
                    <g transform="matrix(1,0,0,1,229.201,107.803)">
                        <path d="M0,0.391L-9.116,0.391L-4.563,-4.48L0,0.391ZM-5.462,-7.095L-19.075,7.486L-15.792,7.486L-11.42,2.87L2.284,2.87L6.648,7.486L9.927,7.486L-3.677,-7.095L-5.462,-7.095Z" style="fill:white;fill-rule:nonzero;"/>
                    </g>
                    <g transform="matrix(1,0,0,1,202.238,109.218)">
                        <path d="M0,-2.427L-16.865,-2.427L-16.865,-8.504L-19.32,-8.504L-19.32,6.077L-16.892,6.077L-16.892,0.028L0.008,0.028L0.008,6.077L2.446,6.077L2.446,-8.504L0,-8.504L0,-2.427Z" style="fill:white;fill-rule:nonzero;"/>
                    </g>
                    <g transform="matrix(1,0,0,1,247.039,109.204)">
                        <path d="M0,-2.424L0,-6.053L13.798,-6.053C15.027,-6.053 15.757,-5.542 16.014,-5.323L16.064,-5.279C16.512,-4.831 16.489,-4.191 16.472,-4.003C16.41,-3.556 16.149,-3.176 15.697,-2.871C14.921,-2.467 14.138,-2.424 13.759,-2.424L0,-2.424ZM14.189,0.022C15.936,-0.118 16.851,-0.716 17.004,-0.828C18.487,-1.689 18.871,-3.156 18.889,-3.468C19.334,-5.696 17.848,-6.989 17.846,-6.989C16.497,-8.399 14.377,-8.508 13.759,-8.508L-2.459,-8.508L-2.459,6.084L-0.022,6.084L-0.022,0.022L10.628,0.022L17.141,6.084L20.676,6.084C20.676,6.084 15.941,1.666 14.189,0.022" style="fill:white;fill-rule:nonzero;"/>
                    </g>
                </g>
            </g>
            <g transform="matrix(2.58824,0,0,6.8342,-87.8854,327.824)">
                <g>
                    <g>
                        <path d="M84.015,56.957L84.015,53.757L71.255,53.757L71.255,28.957L67.775,28.957L67.775,56.957L84.015,56.957Z" style="fill:white;fill-rule:nonzero;"/>
                        <rect x="107.535" y="28.957" width="3.48" height="28" style="fill:white;fill-rule:nonzero;"/>
                        <path d="M136.455,56.957L139.935,56.957L139.935,44.717L151.455,44.717L151.455,41.517L139.935,41.517L139.935,32.157L153.855,32.157L153.855,28.957L136.455,28.957L136.455,56.957Z" style="fill:white;fill-rule:nonzero;"/>
                        <path d="M177.575,56.957L195.935,56.957L195.935,53.757L181.055,53.757L181.055,44.317L193.015,44.317L193.015,41.117L181.055,41.117L181.055,32.157L195.415,32.157L195.415,28.957L177.575,28.957L177.575,56.957Z" style="fill:white;fill-rule:nonzero;"/>
                        <path d="M218.735,47.797C218.935,53.317 222.935,57.197 229.775,57.197C235.655,57.197 239.735,53.797 239.735,48.957C239.735,43.517 235.055,41.997 230.495,41.237C226.295,40.517 222.895,39.837 222.895,36.477C222.895,33.477 225.335,31.877 228.975,31.877C232.775,31.877 235.375,33.997 235.775,37.237L239.375,37.237C239.055,32.197 235.215,28.717 228.975,28.717C223.295,28.717 219.415,31.917 219.415,36.677C219.415,42.117 224.055,43.597 228.575,44.357C232.815,45.077 236.255,45.797 236.255,49.277C236.255,52.317 233.575,54.037 229.815,54.037C225.535,54.037 222.615,51.557 222.335,47.797L218.735,47.797Z" style="fill:white;fill-rule:nonzero;"/>
                        <path d="M261.015,32.157L270.095,32.157L270.095,56.957L273.575,56.957L273.575,32.157L282.655,32.157L282.655,28.957L261.015,28.957L261.015,32.157Z" style="fill:white;fill-rule:nonzero;"/>
                        <path d="M314.455,46.597L314.455,56.957L317.935,56.957L317.935,46.597L328.495,28.957L324.575,28.957L316.215,42.837L307.975,28.957L303.895,28.957L314.455,46.597Z" style="fill:white;fill-rule:nonzero;"/>
                        <path d="M367.815,56.957L367.815,53.757L355.055,53.757L355.055,28.957L351.575,28.957L351.575,56.957L367.815,56.957Z" style="fill:white;fill-rule:nonzero;"/>
                        <path d="M391.335,56.957L409.695,56.957L409.695,53.757L394.815,53.757L394.815,44.317L406.775,44.317L406.775,41.117L394.815,41.117L394.815,32.157L409.175,32.157L409.175,28.957L391.335,28.957L391.335,56.957Z" style="fill:white;fill-rule:nonzero;"/>
                    </g>
                </g>
            </g>
        </g>
    </g>
</svg>
