<?xml version="1.0" encoding="UTF-8" standalone="no"?>
<!DOCTYPE svg PUBLIC "-//W3C//DTD SVG 1.1//EN" "http://www.w3.org/Graphics/SVG/1.1/DTD/svg11.dtd">
<svg width="100%" height="100%" viewBox="0 0 3024 755" version="1.1" xmlns="http://www.w3.org/2000/svg" xmlns:xlink="http://www.w3.org/1999/xlink" xml:space="preserve" xmlns:serif="http://www.serif.com/" style="fill-rule:evenodd;clip-rule:evenodd;stroke-linejoin:round;stroke-miterlimit:2;">
    <g transform="matrix(1,0,0,1,-3720.61,-7010.12)">
        <g id="Artboard1" transform="matrix(2.95312,0,0,0.982855,3720.61,7010.12)">
            <rect x="0" y="0" width="1024" height="768" style="fill:none;"/>
            <g transform="matrix(6.30264,0,0,18.9372,-757.952,-1852.04)">
                <g>
                    <g transform="matrix(1,0,0,1,0,0.009)">
                        <rect x="276.461" y="100.705" width="2.429" height="14.581" style="fill:white;"/>
                    </g>
                    <g transform="matrix(1,0,0,1,122.589,112.825)">
                        <path d="M0,-9.658L10.769,-9.658L10.769,2.47L13.194,2.47L13.194,-9.673L23.934,-9.673L23.934,-12.128L0.028,-12.128L0,-9.658Z" style="fill:white;fill-rule:nonzero;"/>
                    </g>
                    <g transform="matrix(1,0,0,1,167.525,107.803)">
                        <path d="M0,0.391L-9.115,0.391L-4.558,-4.48L0,0.391ZM-5.456,-7.095L-19.061,7.486L-15.796,7.486L-11.401,2.87L2.291,2.87L6.647,7.486L9.951,7.486L-3.662,-7.095L-5.456,-7.095Z" style="fill:white;fill-rule:nonzero;"/>
                    </g>
                    <g transform="matrix(1,0,0,1,229.201,107.803)">
                        <path d="M0,0.391L-9.116,0.391L-4.563,-4.48L0,0.391ZM-5.462,-7.095L-19.075,7.486L-15.792,7.486L-11.42,2.87L2.284,2.87L6.648,7.486L9.927,7.486L-3.677,-7.095L-5.462,-7.095Z" style="fill:white;fill-rule:nonzero;"/>
                    </g>
                    <g transform="matrix(1,0,0,1,202.238,109.218)">
                        <path d="M0,-2.427L-16.865,-2.427L-16.865,-8.504L-19.32,-8.504L-19.32,6.077L-16.892,6.077L-16.892,0.028L0.008,0.028L0.008,6.077L2.446,6.077L2.446,-8.504L0,-8.504L0,-2.427Z" style="fill:white;fill-rule:nonzero;"/>
                    </g>
                    <g transform="matrix(1,0,0,1,247.039,109.204)">
                        <path d="M0,-2.424L0,-6.053L13.798,-6.053C15.027,-6.053 15.757,-5.542 16.014,-5.323L16.064,-5.279C16.512,-4.831 16.489,-4.191 16.472,-4.003C16.41,-3.556 16.149,-3.176 15.697,-2.871C14.921,-2.467 14.138,-2.424 13.759,-2.424L0,-2.424ZM14.189,0.022C15.936,-0.118 16.851,-0.716 17.004,-0.828C18.487,-1.689 18.871,-3.156 18.889,-3.468C19.334,-5.696 17.848,-6.989 17.846,-6.989C16.497,-8.399 14.377,-8.508 13.759,-8.508L-2.459,-8.508L-2.459,6.084L-0.022,6.084L-0.022,0.022L10.628,0.022L17.141,6.084L20.676,6.084C20.676,6.084 15.941,1.666 14.189,0.022" style="fill:white;fill-rule:nonzero;"/>
                    </g>
                </g>
            </g>
            <g transform="matrix(2.60962,0,0,6.89068,-86.5951,309.95)">
                <g>
                    <path d="M75.495,56.957L79.695,56.957L89.775,28.957L86.175,28.957L77.655,52.837L69.095,28.957L65.415,28.957L75.495,56.957Z" style="fill:white;fill-rule:nonzero;"/>
                    <path d="M112.855,56.957L131.215,56.957L131.215,53.757L116.335,53.757L116.335,44.317L128.295,44.317L128.295,41.117L116.335,41.117L116.335,32.157L130.695,32.157L130.695,28.957L112.855,28.957L112.855,56.957Z" style="fill:white;fill-rule:nonzero;"/>
                    <path d="M158.535,56.957L158.535,35.357L173.575,56.957L176.775,56.957L176.775,28.957L173.375,28.957L173.375,50.557L158.335,28.957L155.135,28.957L155.135,56.957L158.535,56.957Z" style="fill:white;fill-rule:nonzero;"/>
                    <path d="M200.295,32.157L209.375,32.157L209.375,56.957L212.855,56.957L212.855,32.157L221.935,32.157L221.935,28.957L200.295,28.957L200.295,32.157Z" style="fill:white;fill-rule:nonzero;"/>
                    <path d="M245.295,44.997C245.295,52.997 248.935,57.197 255.935,57.197C262.935,57.197 266.655,52.997 266.655,44.997L266.655,28.957L263.175,28.957L263.175,45.197C263.175,50.997 260.855,53.997 255.935,53.997C251.095,53.997 248.775,50.997 248.775,45.197L248.775,28.957L245.295,28.957L245.295,44.997Z" style="fill:white;fill-rule:nonzero;"/>
                    <path d="M291.935,56.957L295.415,56.957L295.415,46.197L302.455,46.197L308.375,56.957L312.295,56.957L306.015,45.517C309.615,44.517 311.975,41.477 311.975,37.557C311.975,32.317 308.255,28.957 302.655,28.957L291.935,28.957L291.935,56.957ZM302.415,32.157C306.055,32.157 308.415,34.277 308.415,37.557C308.415,40.837 306.055,42.997 302.375,42.997L295.415,42.997L295.415,32.157L302.415,32.157Z" style="fill:white;fill-rule:nonzero;"/>
                    <path d="M336.375,56.957L354.735,56.957L354.735,53.757L339.855,53.757L339.855,44.317L351.815,44.317L351.815,41.117L339.855,41.117L339.855,32.157L354.215,32.157L354.215,28.957L336.375,28.957L336.375,56.957Z" style="fill:white;fill-rule:nonzero;"/>
                    <path d="M377.535,47.797C377.735,53.317 381.735,57.197 388.575,57.197C394.455,57.197 398.535,53.797 398.535,48.957C398.535,43.517 393.855,41.997 389.295,41.237C385.095,40.517 381.695,39.837 381.695,36.477C381.695,33.477 384.135,31.877 387.775,31.877C391.575,31.877 394.175,33.997 394.575,37.237L398.175,37.237C397.855,32.197 394.015,28.717 387.775,28.717C382.095,28.717 378.215,31.917 378.215,36.677C378.215,42.117 382.855,43.597 387.375,44.357C391.615,45.077 395.055,45.797 395.055,49.277C395.055,52.317 392.375,54.037 388.615,54.037C384.335,54.037 381.415,51.557 381.135,47.797L377.535,47.797Z" style="fill:white;fill-rule:nonzero;"/>
                </g>
            </g>
        </g>
    </g>
</svg>
